<svg width="40" height="40" viewBox="0 0 40 40" fill="none" xmlns="http://www.w3.org/2000/svg">
<path d="M26.6665 6.66669H29.9998C30.8839 6.66669 31.7317 7.01788 32.3569 7.643C32.982 8.26812 33.3332 9.11597 33.3332 10V33.3334C33.3332 34.2174 32.982 35.0653 32.3569 35.6904C31.7317 36.3155 30.8839 36.6667 29.9998 36.6667H9.99984C9.11578 36.6667 8.26794 36.3155 7.64281 35.6904C7.01769 35.0653 6.6665 34.2174 6.6665 33.3334V10C6.6665 9.11597 7.01769 8.26812 7.64281 7.643C8.26794 7.01788 9.11578 6.66669 9.99984 6.66669H13.3332" stroke="white" stroke-width="2" stroke-linecap="round" stroke-linejoin="round"/>
<path d="M25.0002 3.33331H15.0002C14.0797 3.33331 13.3335 4.07951 13.3335 4.99998V8.33331C13.3335 9.25379 14.0797 9.99998 15.0002 9.99998H25.0002C25.9206 9.99998 26.6668 9.25379 26.6668 8.33331V4.99998C26.6668 4.07951 25.9206 3.33331 25.0002 3.33331Z" stroke="white" stroke-width="2" stroke-linecap="round" stroke-linejoin="round"/>
</svg>
